/* XPM */
static char *aa1e9e7517c44294842f1e9412e3fc45[] = {
/* columns rows colors chars-per-pixel */
"128 128 49 1 ",
"  c #040204",
". c gray100",
"X c #3C3E3C",
"o c #FCFAFC",
"O c #040604",
"+ c #F4F6F4",
"@ c #444644",
"# c #0C0A0C",
"$ c #7C7E7C",
"% c #FCFEFC",
"& c #ECEEEC",
"* c #0C0E0C",
"= c #141214",
"- c #848284",
"; c #8C8A8C",
": c #848684",
"> c #D4D6D4",
", c #9C9E9C",
"< c #4C4E4C",
"1 c #545654",
"2 c #F4F2F4",
"3 c #E4E6E4",
"4 c #5C5E5C",
"5 c #242224",
"6 c #5C5A5C",
"7 c #141614",
"8 c #8C8E8C",
"9 c #E4E2E4",
"0 c #545254",
"q c #747674",
"w c #949694",
"e c #C4C6C4",
"r c #1C1E1C",
"t c #A4A6A4",
"y c #6C6E6C",
"u c #646664",
"i c #242624",
"p c #343634",
"a c #747274",
"s c #B4B6B4",
"d c #2C2E2C",
"f c #646264",
"g c #4C4A4C",
"h c #ACAAAC",
"j c #444244",
"k c #343234",
"l c #2C2A2C",
"z c #6C6A6C",
"x c #CCCACC",
/* pixels */
"...................+xesshth,t,,,w,ww8w8w8w88;:;:;:;:;:;:;:-$-$-$-$-$-$-$-$-$-$-$-$-$-$-$--;:;:;;w8ww,,,thsx3o...................",
"................>$XO                                                                                         dae%...............",
".............+,k                                                                                                iw2.............",
"...........%t5                                                                                                    7,o...........",
"..........>X                                                                                                        X>..........",
".........t*                                                                                                          #,.........",
".......%a                                                                                                              a%.......",
"......ou                                                                                                                4o......",
"......y                                                                                                                  f%.....",
".....w                                                                                                                    $.....",
"....eO                                                                                                                     s....",
"...od                                                                                                                      =&...",
"...:                                                                                                                        $...",
"..&=                                                                                                                        #3..",
"..:                                                                                   O##OO                                  a..",
".o7                                                                             Ol4ws93&2&&>s86iO                            *&.",
".s                                                                           OXw3...............9wjO                          w.",
".f                                                                         *y>.....................>a*                        j.",
".7                                                                       Oq3.........................&a*                      O+",
"3                                                                       @9.............................9g                      e",
"t                                                                     *w%...............................o,=                    ,",
"$                                                                    5x...................................xl                   8",
"z                                                                   p3.....................................&j                  q",
"f                                                                  X2.................+22+%.................2g                 z",
"4                                                                 p+..............&haX=*==iXf,9..............+@                f",
"1                                                                i&............+s<*           OXt+............&d               6",
"0                                                               #x...........otd                 5wo...........37              1",
"<                                                               ,...........>@                     X>...........t              0",
"0                                                              @%..........h*                       *t...........f             <",
"<                                                             #3..........:                           $%.........3=            g",
"0                                                             q..........;          i4$;8:$1r          :..........w            @",
"@                                                            =&.........t         <eo.......+e<O        w.........+r           @",
"g                                                            q.........>=       ie.............ek       #x.........8           @",
"@                                                           O9........oX       42...............+y       d2........&=          @",
"g                                                           <.........t       q%.................o-       ;.........4          j",
"@                                                           t........+r      y%...................%a      7&........s          X",
"g                                                          O&........t      jo.....................+X      -........+*         X",
"@                                                          p.........k     #>.......................>#     io........g         X",
"g                                                          z........9      u.........................u      e........:         X",
"<                                                          ,........8      e.........................>O     q........s         X",
"<                                                          e........1     r%..........................k     @........9         X",
"0                                                          3........k     6...........................$     io.......+#        X",
"<                                                         Oo.......%=     8...........................h     =+........=        X",
"0                                                         5%.......o      h...........................e     O2........r        X",
"<                                                         p........o      e...........................x      &........l        X",
"0                                                         :........o      s...........................e      &........r        X",
"<                                                        Xo........%*     t...........................t     O2........7        X",
"0                                                       =3..........d     y...........................;     7+.......+#        X",
"0                                                       t...........0     d...........................0     k........9         X",
"1                                                      u............:     O9.........................&=     z........e         X",
"6                                                     l2............x      a.........................w      h........8         X",
"1                                                    Ox.............or     =3.......................&5     *2........6         X",
"6                                                    8...............-      6.......................a      u........o7         X",
"1                                                   go...............3#      ,.....................hO     O>........eO         X",
"6                                                  73.................q      #e...................e*      u.........q          X",
"1                                                  s..................&=      #h.................s=      =3........or          X",
"6                                                 q....................s        q2.............+qO       ,.........h           X",
"6                                                p+.....................q        5,2.........+,5        y..........X           X",
"4                                               *9......................o0         *4we>9>e,f=         @+.........s            X",
"f                                               t........................+0                           <+.........ok            X",
"4                                              4o.........................oy                         f+..........w             X",
"f                                             i&............................h7                     *t...........9*             X",
"4                                            Oe..............................&uO                  49...........+X              X",
"f                                          O78.................................9z*             O1>.............u               X",
"4                                    =1:s>2......................................&h4lO      51,&..............;                X",
"f                                 #4eo...............................................o33>93o.................8O                X",
"&,1=                            *$&.........................................................................:                  X",
"...oe$d                        09.........................................................................+u                   X",
".......9w<*                  *t..........................................................................3X                    X",
"..........+syi              i>.........................................................................ow=                     X",
"..............9w@#         p&.........................................................................eX                       X",
".................2su5     @2.............%o+o+%....................................................oe@                         X",
"....................%>;X#<+...........2t1l*#O=5Xas+.............................................%9;d                           X",
"........................&+..........3$=           7$&......................................o+9tap                              X",
"..................................+;*               =w%................................sXpkr#                                  X",
"..................................6                   6+.............................+aO                                       X",
"..................................oe$pO                X&...........................>p                                         X",
"......................................3t17              X+........................o,=                                          X",
".........................................+eqd            1%......................&6                                            X",
".............................................>8dO         w.....................e5                                             X",
"...............................................%e@        *9..................+:#                                              X",
".................................................%wO       f.................3@                                                X",
"...................................................t       O3...............h7                                                 X",
"....................................................1       8.............+zO                                                  X",
"....................................................3#      j............>d                                                    X",
".....................................................6      *o.........%w#                                                     X",
";ys&.................................................s       9........&0                                                       X",
"4  *@8>o.............................................9O      x.......e5                                                        X",
"6      iys2..........................................2O      x.......X                                                         X",
"<         =<,9o......................................&O      x.......X                                                         X",
"<            Op-xo...................................x       9.......k                                                         X",
"@                5ze.................................;      Oo......or                                                         X",
"g                  ro...............................oi      d.......&                                                          X",
"@                   >...............................,       y.......s                                                          X",
"j                   ,.......9,>o...................97       s.......:                                                          @",
"X                   6.......&=O5uh3...............3d       5o.......j                                                          @",
"j                   7+.......$    #X:xo..........ei        ,.......&O                                                          @",
"X                    h.......&5       r4t3%...oefO        p+.......t                                                           @",
"@                    j........sO         O5@1j=          #x........X                                                           @",
"g                    Ox........;                         t........x                                                            <",
"@                     @%.......oq                       8.........@                                                            <",
"g                      s........o:                    O,.........s                                                             1",
"<                      i&.........h=                 re.........3r                                                             1",
"6                       6%.........3u#             #a&.........%0                                                              4",
"4                        w...........9$l         l$9...........$                                                               u",
"y                        Oh............o>t-azq:h3o............,O                                                               a",
"-                         #s.................................hO                                                                $",
"w                          #t...............................,O                                                                 w",
"s                            $o...........................+q                                                                   s",
"3                             X>.........................xX                                                                    3",
".5                             *-&.....................3zO                                                                    r.",
".y                               7-9.................xu#                                                                      y.",
".x                                 #0h3..........ox;p                                                                         e.",
"..X                                   Oig6uyyzu6X=                                                                           k..",
"..s                                                                                                                          h..",
"...j                                                                                                                        p%..",
"...xO                                                                                                                       e...",
"....q                                                                                                                      q....",
"....+p                                                                                                                    p+....",
".....37                                                                                                                  79.....",
"......x=                                                                                                                *>......",
".......x7                                                                                                              =e.......",
"........>l                                                                                                            5>........",
".........24                                                                                                          0&.........",
"...........sl                                                                                                      rh...........",
"............+,5                                                                                                  rw+............",
"..............oh<#                                                                                            *1s+..............",
".................+s$1@XXXXXXXXXXXXXXXXXXXXXXXXXXXXXXXXXXXXXXXXXXXXXXXXXXXXXXXXXXXXXXXXXXXXXXXXXXXXXXXXXXXX@1;e+................."
};
